# xmcd CD database file
#
# Track frame offsets:
#	150
#	19068
#	41576
#	61136
#	80818
#	98032
#	115261
#	131775
#	146805
#
# Disc length: 2290 seconds
#
# Revision: 2
# Processed by: cddbd v1.5.2PL0 Copyright (c) Steve Scherf et al.
# Submitted via: CDex 1.70beta2
#
DISCID=7c08f009
DTITLE=The Fart Blues - The Fart Blues
DYEAR=2009
DGENRE=Blues
TTITLE0=Tus Suspiros Al Aire
TTITLE1=Tu Mirada
TTITLE2=Quiero Tomar Alcohol
TTITLE3=Inalcanzable
TTITLE4=Mujer Veneno
TTITLE5=Distribuidor
TTITLE6=Fart Blues
TTITLE7=Oh Si
TTITLE8=45 Norte
EXTD=YEAR: 2009
EXTT0=
EXTT1=
EXTT2=
EXTT3=
EXTT4=
EXTT5=
EXTT6=
EXTT7=
EXTT8=
PLAYORDER=
